<svg width="24" height="20" viewBox="0 0 24 20" fill="none" xmlns="http://www.w3.org/2000/svg">
<path d="M11.7652 4.70605C10.6017 4.70605 9.46446 5.05105 8.49711 5.69741C7.52976 6.34377 6.7758 7.26247 6.33058 8.33733C5.88536 9.41219 5.76887 10.5949 5.99584 11.736C6.22281 12.8771 6.78305 13.9252 7.60572 14.7479C8.42838 15.5705 9.47651 16.1308 10.6176 16.3577C11.7586 16.5847 12.9414 16.4682 14.0162 16.023C15.0911 15.5778 16.0098 14.8238 16.6562 13.8565C17.3025 12.8891 17.6475 11.7518 17.6475 10.5884C17.6475 9.02831 17.0278 7.53211 15.9246 6.42896C14.8215 5.3258 13.3253 4.70605 11.7652 4.70605ZM11.7652 15.2943C10.8344 15.2943 9.9246 15.0183 9.15072 14.5012C8.37684 13.9841 7.77368 13.2492 7.4175 12.3893C7.06132 11.5294 6.96813 10.5832 7.14971 9.67034C7.33128 8.75748 7.77948 7.91898 8.43761 7.26085C9.09574 6.60272 9.93424 6.15452 10.8471 5.97295C11.7599 5.79137 12.7061 5.88456 13.566 6.24074C14.4259 6.59692 15.1609 7.20008 15.678 7.97396C16.1951 8.74784 16.471 9.65767 16.471 10.5884C16.471 11.8365 15.9753 13.0334 15.0927 13.916C14.2102 14.7985 13.0132 15.2943 11.7652 15.2943Z" fill="#FD5B44"/>
<path d="M19.4118 2.35294H16.8353L16.3471 1.37647C16.1233 0.976288 15.8011 0.639835 15.411 0.398963C15.0208 0.158092 14.5757 0.0207705 14.1176 0H9.41176C8.95374 0.0207705 8.50859 0.158092 8.11846 0.398963C7.72833 0.639835 7.40612 0.976288 7.18235 1.37647L6.69412 2.35294H4.11765C3.02558 2.35294 1.97824 2.78676 1.20603 3.55897C0.433822 4.33118 0 5.37852 0 6.47059V15.8824C0 16.9744 0.433822 18.0218 1.20603 18.794C1.97824 19.5662 3.02558 20 4.11765 20H19.4118C20.5038 20 21.5512 19.5662 22.3234 18.794C23.0956 18.0218 23.5294 16.9744 23.5294 15.8824V6.47059C23.5294 5.37852 23.0956 4.33118 22.3234 3.55897C21.5512 2.78676 20.5038 2.35294 19.4118 2.35294ZM22.3529 15.8824C22.3529 16.6624 22.0431 17.4105 21.4915 17.9621C20.9399 18.5137 20.1918 18.8235 19.4118 18.8235H4.11765C3.3376 18.8235 2.5895 18.5137 2.03792 17.9621C1.48634 17.4105 1.17647 16.6624 1.17647 15.8824V6.47059C1.17647 5.69054 1.48634 4.94244 2.03792 4.39086C2.5895 3.83928 3.3376 3.52941 4.11765 3.52941H7.05882C7.16745 3.52908 7.27387 3.49868 7.36627 3.44157C7.45868 3.38447 7.53347 3.30289 7.58235 3.20588L8.23529 1.90588C8.35877 1.69908 8.53004 1.52491 8.73475 1.39799C8.93946 1.27107 9.17163 1.1951 9.41176 1.17647H14.1176C14.3578 1.1951 14.59 1.27107 14.7947 1.39799C14.9994 1.52491 15.1706 1.69908 15.2941 1.90588L15.9471 3.20588C15.9959 3.30289 16.0707 3.38447 16.1631 3.44157C16.2555 3.49868 16.362 3.52908 16.4706 3.52941H19.4118C20.1918 3.52941 20.9399 3.83928 21.4915 4.39086C22.0431 4.94244 22.3529 5.69054 22.3529 6.47059V15.8824Z" fill="#FD5B44"/>
</svg>
