<svg width="20" height="20" viewBox="0 0 20 20" fill="none" xmlns="http://www.w3.org/2000/svg">
<mask id="path-1-inside-1_2741_17982" fill="white">
<path d="M9.5246 2.7738C9.41165 2.7738 9.30024 2.74126 9.22883 2.68C9.17685 2.63542 8.11404 1.71621 7.60377 0.738834L7.34399 0.953115C7.22258 1.05333 6.99354 1.07319 6.8327 0.997608C6.67171 0.921984 6.63973 0.779509 6.76122 0.679344L7.47527 0.0903988C7.56237 0.0185474 7.70927 -0.0145833 7.8501 0.00604951C7.99087 0.0266369 8.09885 0.0969431 8.1255 0.185383C8.43572 1.21498 9.8062 2.40137 9.81993 2.41323C9.93821 2.51485 9.90177 2.65692 9.73867 2.73054C9.67383 2.75976 9.59885 2.7738 9.5246 2.7738Z"/>
</mask>
<path d="M9.5246 2.7738C9.41165 2.7738 9.30024 2.74126 9.22883 2.68C9.17685 2.63542 8.11404 1.71621 7.60377 0.738834L7.34399 0.953115C7.22258 1.05333 6.99354 1.07319 6.8327 0.997608C6.67171 0.921984 6.63973 0.779509 6.76122 0.679344L7.47527 0.0903988C7.56237 0.0185474 7.70927 -0.0145833 7.8501 0.00604951C7.99087 0.0266369 8.09885 0.0969431 8.1255 0.185383C8.43572 1.21498 9.8062 2.40137 9.81993 2.41323C9.93821 2.51485 9.90177 2.65692 9.73867 2.73054C9.67383 2.75976 9.59885 2.7738 9.5246 2.7738Z" fill="#E42E3B"/>
<path d="M9.22883 2.68L9.9697 1.81649L9.96954 1.81635L9.22883 2.68ZM7.60377 0.738834L8.61236 0.212266L7.96268 -1.03215L6.87976 -0.138867L7.60377 0.738834ZM7.34399 0.953115L6.61999 0.0754146L6.61975 0.0756114L7.34399 0.953115ZM6.8327 0.997608L7.31657 -0.0321521L7.31645 -0.0322091L6.8327 0.997608ZM6.76122 0.679344L7.48501 1.55722L7.48518 1.55708L6.76122 0.679344ZM7.47527 0.0903988L8.19923 0.968135L8.19929 0.968087L7.47527 0.0903988ZM7.8501 0.00604951L7.68518 1.13181L7.68545 1.13185L7.8501 0.00604951ZM8.1255 0.185383L9.2149 -0.142859L9.2149 -0.142878L8.1255 0.185383ZM9.81993 2.41323L9.07599 3.2741L9.07847 3.27623L9.81993 2.41323ZM9.73867 2.73054L10.2062 3.76782L10.2068 3.76756L9.73867 2.73054ZM9.5246 1.63603C9.57398 1.63603 9.63223 1.6427 9.69832 1.66321C9.76135 1.68277 9.86288 1.72485 9.9697 1.81649L8.48797 3.54352C8.82674 3.83417 9.23296 3.91158 9.5246 3.91158V1.63603ZM9.96954 1.81635C9.9624 1.81022 9.7162 1.59816 9.4173 1.28008C9.10836 0.95131 8.79679 0.565524 8.61236 0.212266L6.59517 1.2654C7.21889 2.46009 8.44405 3.50585 8.48813 3.54365L9.96954 1.81635ZM6.87976 -0.138867L6.61999 0.0754146L8.068 1.83082L8.32777 1.61653L6.87976 -0.138867ZM6.61975 0.0756114C6.78587 -0.0614926 6.94016 -0.0866195 7.0046 -0.0922215C7.07785 -0.0985887 7.18675 -0.0931538 7.31657 -0.0321521L6.34883 2.02737C6.63949 2.16395 6.94333 2.19724 7.20166 2.17479C7.45119 2.1531 7.7807 2.06793 8.06824 1.83062L6.61975 0.0756114ZM7.31645 -0.0322091C7.43556 0.0237429 7.71234 0.2028 7.80117 0.598404C7.90232 1.04887 7.67789 1.3982 7.48501 1.55722L6.03744 -0.198535C5.72306 0.0606565 5.45388 0.531299 5.5809 1.09695C5.69559 1.60774 6.06885 1.89585 6.34895 2.02742L7.31645 -0.0322091ZM7.48518 1.55708L8.19923 0.968135L6.75131 -0.787337L6.03726 -0.198392L7.48518 1.55708ZM8.19929 0.968087C8.07433 1.07117 7.95753 1.10888 7.89247 1.12353C7.82148 1.13951 7.75279 1.14172 7.68518 1.13181L8.01503 -1.11971C7.64405 -1.17406 7.14745 -1.11412 6.75125 -0.787289L8.19929 0.968087ZM7.68545 1.13185C7.62053 1.12236 7.52113 1.09626 7.40974 1.02373C7.30477 0.955373 7.12194 0.798518 7.0361 0.513643L9.2149 -0.142878C8.99868 -0.860443 8.32863 -1.07385 8.01476 -1.11975L7.68545 1.13185ZM7.0361 0.513624C7.26883 1.28604 7.84036 1.99891 8.23722 2.44101C8.66533 2.9179 9.05113 3.25261 9.07599 3.2741L10.5639 1.55236C10.575 1.56198 10.2687 1.29757 9.93058 0.920907C9.56121 0.509446 9.29239 0.114319 9.2149 -0.142859L7.0361 0.513624ZM9.07847 3.27623C8.87989 3.10562 8.6686 2.7451 8.78264 2.3C8.88129 1.91493 9.15472 1.74581 9.27057 1.69351L10.2068 3.76756C10.4857 3.64165 10.8589 3.36468 10.987 2.86477C11.1305 2.30483 10.8782 1.82246 10.5614 1.55023L9.07847 3.27623ZM9.27113 1.69326C9.37506 1.64642 9.4634 1.63603 9.5246 1.63603V3.91158C9.7343 3.91158 9.97261 3.87311 10.2062 3.76782L9.27113 1.69326Z" fill="#E42E3B" mask="url(#path-1-inside-1_2741_17982)"/>
<mask id="path-3-inside-2_2741_17982" fill="white">
<path d="M9.523 2.77387C9.44875 2.77387 9.37376 2.75978 9.309 2.73056C9.14583 2.65693 9.10939 2.51487 9.22767 2.41325C9.24147 2.40139 10.6119 1.215 10.9221 0.1854C10.9487 0.0969604 11.0567 0.0266088 11.1974 0.00606684C11.3381 -0.0146115 11.4851 0.0185647 11.5723 0.0904161L12.2863 0.679361C12.4077 0.779526 12.3757 0.922001 12.2148 0.997625C12.0539 1.0732 11.825 1.0533 11.7035 0.953133L11.4437 0.738851C10.9335 1.71628 9.8706 2.63544 9.81862 2.68002C9.74736 2.74137 9.63594 2.77387 9.523 2.77387Z"/>
</mask>
<path d="M9.523 2.77387C9.44875 2.77387 9.37376 2.75978 9.309 2.73056C9.14583 2.65693 9.10939 2.51487 9.22767 2.41325C9.24147 2.40139 10.6119 1.215 10.9221 0.1854C10.9487 0.0969604 11.0567 0.0266088 11.1974 0.00606684C11.3381 -0.0146115 11.4851 0.0185647 11.5723 0.0904161L12.2863 0.679361C12.4077 0.779526 12.3757 0.922001 12.2148 0.997625C12.0539 1.0732 11.825 1.0533 11.7035 0.953133L11.4437 0.738851C10.9335 1.71628 9.8706 2.63544 9.81862 2.68002C9.74736 2.74137 9.63594 2.77387 9.523 2.77387Z" fill="#E42E3B"/>
<path d="M9.309 2.73056L9.77697 1.69347L9.77693 1.69345L9.309 2.73056ZM9.22767 2.41325L9.96913 3.27625L9.96935 3.27606L9.22767 2.41325ZM10.9221 0.1854L12.0115 0.513641L12.0117 0.512835L10.9221 0.1854ZM11.1974 0.00606684L11.3618 1.13191L11.3629 1.13175L11.1974 0.00606684ZM11.5723 0.0904161L12.2962 -0.787321L12.2959 -0.78757L11.5723 0.0904161ZM12.2863 0.679361L13.0103 -0.198304L13.0103 -0.198376L12.2863 0.679361ZM12.2148 0.997625L12.6985 2.02747L12.6988 2.02736L12.2148 0.997625ZM11.7035 0.953133L10.9796 1.83093L10.9797 1.83101L11.7035 0.953133ZM11.4437 0.738851L12.1676 -0.13895L11.0846 -1.03202L10.435 0.212361L11.4437 0.738851ZM9.81862 2.68002L9.07791 1.81637L9.07625 1.8178L9.81862 2.68002ZM9.523 1.63609C9.58459 1.63609 9.67304 1.64658 9.77697 1.69347L8.84103 3.76764C9.07449 3.87298 9.3129 3.91165 9.523 3.91165V1.63609ZM9.77693 1.69345C9.89268 1.74568 10.1662 1.91473 10.2649 2.29986C10.3791 2.74506 10.1677 3.10565 9.96913 3.27625L8.48621 1.55024C8.16937 1.82246 7.91708 2.3049 8.06065 2.86494C8.18883 3.36492 8.56215 3.64181 8.84108 3.76766L9.77693 1.69345ZM9.96935 3.27606C9.99689 3.25239 10.3827 2.91754 10.8104 2.44101C11.2073 1.99891 11.7788 1.28605 12.0115 0.513641L9.8327 -0.142841C9.7552 0.11435 9.48638 0.509485 9.11704 0.920935C8.77859 1.29797 8.47225 1.56224 8.48599 1.55043L9.96935 3.27606ZM12.0117 0.512835C11.926 0.798304 11.7428 0.955362 11.6379 1.02368C11.5265 1.09623 11.427 1.12239 11.3618 1.13191L11.033 -1.11977C10.7193 -1.07396 10.0483 -0.860463 9.83245 -0.142035L12.0117 0.512835ZM11.3629 1.13175C11.2948 1.14176 11.2258 1.13949 11.1549 1.12352C11.0899 1.10887 10.9733 1.07122 10.8486 0.968402L12.2959 -0.78757C11.9001 -1.11383 11.4037 -1.17425 11.032 -1.11962L11.3629 1.13175ZM10.8483 0.968153L11.5623 1.5571L13.0103 -0.198376L12.2962 -0.787321L10.8483 0.968153ZM11.5623 1.55703C11.3693 1.39784 11.1452 1.04856 11.2463 0.598421C11.3351 0.203038 11.6116 0.0239373 11.7309 -0.0321074L12.6988 2.02736C12.9789 1.89569 13.3519 1.60754 13.4666 1.09697C13.5935 0.531644 13.3247 0.0610459 13.0103 -0.198304L11.5623 1.55703ZM11.7311 -0.0322193C11.8608 -0.0931322 11.9697 -0.0985935 12.043 -0.0922136C12.1076 -0.086595 12.2615 -0.0614347 12.4273 0.0752537L10.9797 1.83101C11.267 2.06786 11.5961 2.15306 11.8458 2.17478C12.1041 2.19726 12.4079 2.16396 12.6985 2.02747L11.7311 -0.0322193ZM12.4274 0.0753312L12.1676 -0.13895L10.7198 1.61665L10.9796 1.83093L12.4274 0.0753312ZM10.435 0.212361C10.2507 0.565587 9.93913 0.951341 9.6302 1.28009C9.3313 1.59815 9.0851 1.8102 9.07791 1.81637L10.5593 3.54367C10.6033 3.50593 11.8286 2.46016 12.4523 1.26534L10.435 0.212361ZM9.07625 1.8178C9.18366 1.72531 9.2859 1.68295 9.34915 1.66332C9.41549 1.64272 9.4738 1.63609 9.523 1.63609V3.91165C9.81388 3.91165 10.2214 3.83462 10.561 3.54224L9.07625 1.8178Z" fill="#E42E3B" mask="url(#path-3-inside-2_2741_17982)"/>
<path d="M7.12844 1.11287C7.1282 1.11307 7.12797 1.11327 7.12774 1.11347L7.12844 1.11287Z" fill="#E42E3B" stroke="#E42E3B" stroke-width="1.13778"/>
<path d="M14.884 4.43065L14.8716 4.442L14.8606 4.45206L14.8605 4.4521L14.7256 4.57545L14.6739 4.62275C14.6738 4.62275 14.6737 4.62274 14.6737 4.62274C14.6727 4.62265 14.6718 4.62257 14.6709 4.62248L14.7256 4.57265L14.7355 4.5636L14.8599 4.45039L14.8599 4.45035L14.9085 4.40609L14.8961 4.41849L14.884 4.43065ZM14.884 4.43065L14.8816 4.43303L14.8611 4.45352L14.8611 4.45356L14.7256 4.58903L14.6906 4.624C14.6908 4.62401 14.691 4.62402 14.6912 4.62404C14.6937 4.62418 14.6962 4.62431 14.6987 4.62443L14.7256 4.59721L14.8629 4.45837L14.8629 4.45832L14.9359 4.38445L14.9494 4.37084L14.9221 4.39577L14.884 4.43065ZM14.8651 4.17641C14.8651 4.17647 14.8643 4.1752 14.863 4.17239C14.8645 4.17493 14.8651 4.17634 14.8651 4.17641Z" fill="#E42E3B" stroke="#E42E3B" stroke-width="1.13778"/>
<path d="M4.31929 4.6255C4.2554 4.6255 4.19072 4.61505 4.13194 4.59314C3.96249 4.52988 3.90517 4.39463 4.00045 4.28792C4.10873 4.12377 4.3233 2.92111 3.28648 2.08048C3.16368 1.98095 3.19376 1.83829 3.35372 1.76185C3.51362 1.68541 3.74287 1.70418 3.8656 1.80371C5.13043 2.82917 4.84847 4.29101 4.63272 4.51507C4.56431 4.58614 4.44333 4.6255 4.31929 4.6255ZM4.00651 4.28142C4.00542 4.28256 4.00417 4.28383 4.00301 4.2852C4.00417 4.28388 4.00534 4.28265 4.00651 4.28142Z" fill="#E42E3B"/>
<path d="M9.52326 10.1993C9.32167 10.1993 9.1582 10.0976 9.1582 9.97208V2.54657C9.1582 2.42109 9.32167 2.31934 9.52326 2.31934C9.72491 2.31934 9.88831 2.42109 9.88831 2.54657L9.88824 9.97208C9.88824 10.0976 9.72484 10.1993 9.52326 10.1993Z" fill="#E42E3B"/>
<path d="M11.2809 0.454468H7.76544C7.56386 0.454468 7.40039 0.352713 7.40039 0.227234C7.40039 0.101755 7.56386 0 7.76544 0H11.2809C11.4826 0 11.646 0.101755 11.646 0.227234C11.646 0.352713 11.4825 0.454468 11.2809 0.454468Z" fill="#E42E3B"/>
<path d="M7.19626 20.0005H4.60227C4.42741 20.0005 4.27708 19.9233 4.24386 19.8164C3.29662 16.7694 3.84062 10.2369 3.8642 9.96026C3.8745 9.83965 4.03468 9.74512 4.22874 9.74512H9.5307C9.73235 9.74512 9.89575 9.84687 9.89575 9.97235V13.5361C9.89575 13.5534 9.89254 13.5707 9.88619 13.5876L7.55182 19.8248C7.51334 19.9277 7.36601 20.0005 7.19626 20.0005ZM4.90665 19.546H6.90655L9.16564 13.5099V10.1996H4.57664C4.49158 11.3478 4.14128 16.7919 4.90665 19.546Z" fill="#E42E3B"/>
<path d="M14.4594 20.0005H11.8656C11.6959 20.0005 11.5486 19.9277 11.5101 19.8248L9.1756 13.5876C9.1299 13.4654 9.25197 13.3432 9.4483 13.3148C9.6447 13.2863 9.84095 13.3623 9.88658 13.4845L12.1552 19.546H14.1551C14.9205 16.7915 14.5703 11.3477 14.4851 10.1996H9.53117C9.32958 10.1996 9.16611 10.0979 9.16611 9.97235C9.16611 9.84687 9.32958 9.74512 9.53117 9.74512H14.833C15.0271 9.74512 15.1873 9.83965 15.1976 9.96031C15.2212 10.2369 15.765 16.7694 14.8179 19.8164C14.7846 19.9233 14.6343 20.0005 14.4594 20.0005Z" fill="#E42E3B"/>
<path d="M4.08557 12.8151C3.92064 12.8151 3.77111 12.7451 3.73088 12.6409C3.68379 12.5189 3.80455 12.3962 4.00058 12.3669C6.01181 12.0661 6.96897 11.2843 6.92692 9.97687C6.9229 9.85139 7.08302 9.74763 7.2846 9.74513C7.48757 9.74368 7.65286 9.8423 7.65688 9.96778C7.669 10.3441 7.633 10.9083 7.18231 11.4611C6.6294 12.1393 5.61631 12.5927 4.17114 12.8088C4.14245 12.8131 4.11375 12.8151 4.08557 12.8151Z" fill="#E42E3B"/>
<path d="M14.9774 12.8152C14.9491 12.8152 14.9205 12.8131 14.8918 12.8088C13.4466 12.5927 12.4335 12.1393 11.8806 11.4611C11.43 10.9084 11.394 10.3441 11.4061 9.96779C11.4102 9.84232 11.5787 9.74302 11.7785 9.74515C11.9801 9.74765 12.1402 9.85141 12.1361 9.97688C12.094 11.2843 13.0511 12.0662 15.0624 12.3669C15.2585 12.3962 15.3791 12.5189 15.332 12.6409C15.2918 12.7451 15.1423 12.8152 14.9774 12.8152Z" fill="#E42E3B"/>
<path d="M7.63151 18.8412H4.33771C4.13613 18.8412 3.97266 18.7395 3.97266 18.614C3.97266 18.4884 4.13613 18.3867 4.33771 18.3867H7.63151C7.83309 18.3867 7.99656 18.4884 7.99656 18.614C7.99656 18.7395 7.83309 18.8412 7.63151 18.8412Z" fill="#E42E3B"/>
<path d="M14.7251 18.8412H11.4315C11.2298 18.8412 11.0664 18.7395 11.0664 18.614C11.0664 18.4884 11.2298 18.3867 11.4315 18.3867H14.7251C14.9268 18.3867 15.0902 18.4884 15.0902 18.614C15.0902 18.7395 14.9267 18.8412 14.7251 18.8412Z" fill="#E42E3B"/>
</svg>
