<svg width="22" height="20" viewBox="0 0 22 20" fill="none" xmlns="http://www.w3.org/2000/svg">
<path d="M0.31593 3.9503C0.117978 4.07387 -0.000340931 4.2793 7.37965e-07 4.49883C0.00363629 7.15447 0.334108 13.3299 3.27563 13.3299H10.6703C10.8711 13.3299 11.0339 13.1807 11.0339 12.9966C11.0339 12.8126 10.8711 12.6634 10.6703 12.6634H3.27563C1.40587 12.6634 0.734382 8.26451 0.725293 4.50249C2.48257 5.08889 4.31927 5.45162 6.18407 5.58054V8.33116C6.18407 9.06735 6.83515 9.66415 7.63829 9.66415H9.09251C9.89565 9.66415 10.5467 9.06735 10.5467 8.33116V5.58054C12.4122 5.45546 14.2491 5.09053 16.0037 4.49649C16.0001 5.00269 15.9877 5.77649 15.9244 6.6496C15.9159 6.76866 15.9772 6.88286 16.0854 6.9492C16.1936 7.01553 16.3322 7.02391 16.449 6.97119C16.5658 6.91847 16.643 6.81264 16.6515 6.69359C16.7159 5.80315 16.7286 5.01569 16.7323 4.49883C16.7325 4.27893 16.6137 4.07324 16.4153 3.94968C16.2169 3.82613 15.9645 3.80077 15.7416 3.88199C14.9131 4.17063 14.0603 4.39655 13.1916 4.55748C12.5099 1.85885 10.5638 0 8.3654 0C6.16698 0 4.22087 1.85885 3.54066 4.55748C2.67225 4.39654 1.81965 4.17073 0.991415 3.88232C0.767841 3.80121 0.514979 3.82666 0.31593 3.9503ZM8.3654 0.666493C9.16304 0.666493 10.1326 2.25208 10.4453 4.92005C9.80035 4.96937 9.10705 4.9987 8.3654 4.9987C7.62375 4.9987 6.93045 4.96937 6.2855 4.92005C6.59816 2.25208 7.56776 0.666493 8.3654 0.666493ZM9.81962 8.33116C9.81962 8.69925 9.49408 8.99765 9.09251 8.99765H7.63829C7.23672 8.99765 6.91118 8.69925 6.91118 8.33116V5.6282C7.37471 5.65186 7.85933 5.66519 8.3654 5.66519C8.87147 5.66519 9.35609 5.65186 9.81962 5.6282V8.33116ZM12.4765 4.68211C12.0715 4.74676 11.6359 4.80541 11.1695 4.85407C11.0019 3.43644 10.6147 2.0508 10.0207 1.12404C11.1491 1.76621 12.0588 3.04854 12.4765 4.68211ZM6.71014 1.12404C6.11609 2.0508 5.72854 3.43644 5.5613 4.85407C5.09486 4.80541 4.65932 4.74676 4.2525 4.68211C4.67205 3.04854 5.58166 1.76621 6.71014 1.12404Z" fill="#E42E3B"/>
<path d="M4.36593 11.3325H3.4036C3.19262 11.0596 3.03696 10.7541 2.94406 10.4307C2.908 10.3129 2.80442 10.2227 2.67423 10.1957C2.54405 10.1687 2.4082 10.2093 2.32034 10.3014C2.23248 10.3935 2.20675 10.5223 2.25331 10.637C2.66013 11.7847 3.02441 11.9277 3.14366 11.9746C3.18897 11.9923 3.23768 12.0013 3.2869 12.0013H4.36665C4.56744 12.0013 4.73021 11.8521 4.73021 11.6681C4.73021 11.484 4.56744 11.3348 4.36665 11.3348L4.36593 11.3325Z" fill="#E42E3B"/>
<path d="M7.63867 7.6643C7.63867 7.84835 7.80144 7.99755 8.00223 7.99755H8.72934C8.93012 7.99755 9.09289 7.84835 9.09289 7.6643C9.09289 7.48025 8.93012 7.33105 8.72934 7.33105H8.00223C7.80144 7.33105 7.63867 7.48025 7.63867 7.6643Z" fill="#E42E3B"/>
<path d="M18.5413 6.12474C15.2901 8.68274 13.0149 11.6633 11.3535 13.8404C11.0943 14.1803 10.8485 14.5022 10.6147 14.8021C9.03474 16.8299 6.85086 15.4503 6.76107 15.3913C6.57565 15.2694 6.25609 15.1967 5.2963 15.5833C4.63746 15.8527 4.03877 16.2317 3.53052 16.701C3.02336 17.1625 2.19736 18.0543 2.36351 18.8384C2.4593 19.2309 2.7727 19.5485 3.18914 19.6752C3.91501 19.9171 4.68575 20.0256 5.45736 19.9945H10.5471C12.3387 19.9945 12.8677 19.144 13.8282 17.6004C14.1805 17.0339 14.6186 16.3304 15.2123 15.514C15.7314 14.8131 16.35 14.1786 17.0519 13.6275C17.5552 14.5524 17.8175 15.5717 17.8182 16.6053V19.328C17.8182 19.6961 18.1438 19.9945 18.5453 19.9945H19.636C20.0376 19.9945 20.3631 19.6961 20.3631 19.328V15.6023C20.3629 15.0084 20.4484 14.417 20.6176 13.8437C20.9426 12.7473 21.4454 11.0778 21.4505 11.0268C21.7119 8.39082 20.6936 6.88688 20.0632 6.22505C19.6708 5.81643 18.9934 5.77178 18.5413 6.12474ZM19.9178 13.6691C19.7312 14.2993 19.6364 14.9493 19.636 15.6023V19.328H18.5453V16.6053C18.5437 15.4175 18.2279 14.2477 17.6248 13.1962C18.5294 12.5591 19.5075 12.0149 20.5416 11.5733L19.9178 13.6691ZM20.7459 10.7635C19.8581 11.0944 16.5589 12.4631 14.6073 15.1454C13.9994 15.9815 13.553 16.6967 13.1967 17.2715C12.2649 18.7674 11.9163 19.328 10.5471 19.328H5.45736C4.78313 19.3571 4.10911 19.2666 3.47235 19.0614C3.1237 18.9281 3.08952 18.7651 3.07825 18.7118C3.00554 18.3765 3.38619 17.773 4.04386 17.1742C4.48793 16.763 5.01116 16.4306 5.58715 16.1938C5.83548 16.0756 6.1038 15.9968 6.38079 15.9605C6.86965 16.2493 7.41748 16.444 7.99097 16.5327C8.87986 16.6617 10.1599 16.5327 11.2063 15.189C11.4415 14.8875 11.6887 14.5639 11.9494 14.2226C13.5886 12.0749 15.8336 9.13362 19.0151 6.63128C19.1641 6.5145 19.3879 6.52936 19.5171 6.6646C20.0552 7.22812 20.9139 8.50112 20.7459 10.7635Z" fill="#E42E3B"/>
<path d="M5.87909 16.8037C5.38494 17.0076 4.93616 17.2934 4.55538 17.6468C4.4101 17.7787 4.27398 17.9189 4.14784 18.0664C4.06809 18.1605 4.04914 18.2864 4.09813 18.3967C4.14711 18.507 4.2566 18.585 4.38533 18.6013C4.51407 18.6176 4.64251 18.5697 4.72225 18.4756C4.82939 18.3504 4.94511 18.2315 5.06872 18.1197C5.38595 17.8242 5.76003 17.5849 6.17211 17.4139C6.34699 17.3355 6.42342 17.1447 6.34547 16.9811C6.26752 16.8176 6.06287 16.7394 5.88127 16.8037H5.87909Z" fill="#E42E3B"/>
</svg>
