<svg width="17" height="20" viewBox="0 0 17 20" fill="none" xmlns="http://www.w3.org/2000/svg">
<path d="M15.6667 8H15.3333V4.66667C15.3321 4.26507 15.1857 3.87745 14.9211 3.57535C14.6565 3.27325 14.2915 3.07705 13.8936 3.02295L12.9899 0.989583C12.8588 0.695091 12.6452 0.444897 12.3749 0.269273C12.1046 0.0936485 11.7892 0.000119029 11.4668 0H5.19987C4.87752 0.000119029 4.5621 0.0936485 4.29179 0.269273C4.02148 0.444897 3.80785 0.695091 3.67676 0.989583L2.77307 3.02295C2.37513 3.07705 2.01018 3.27325 1.74556 3.57535C1.48095 3.87745 1.33454 4.26507 1.33333 4.66667V8H1C0.734872 8.00029 0.480687 8.10574 0.293213 8.29321C0.105739 8.48069 0.000289399 8.73487 0 9V11C0.000289399 11.2651 0.105739 11.5193 0.293213 11.7068C0.480687 11.8943 0.734872 11.9997 1 12H1.33333V15.3333C1.33454 15.7349 1.48095 16.1226 1.74556 16.4247C2.01018 16.7268 2.37513 16.923 2.77307 16.9771L3.67676 19.0104C3.80785 19.3049 4.02148 19.5551 4.29179 19.7307C4.5621 19.9064 4.87752 19.9999 5.19987 20H11.4668C11.7892 19.9999 12.1046 19.9064 12.3749 19.7307C12.6452 19.5551 12.8588 19.3049 12.9899 19.0104L13.8936 16.9771C14.2915 16.923 14.6565 16.7268 14.9211 16.4247C15.1857 16.1226 15.3321 15.7349 15.3333 15.3333V12H15.6667C15.9318 11.9997 16.186 11.8943 16.3735 11.7068C16.5609 11.5193 16.6664 11.2651 16.6667 11V9C16.6664 8.73487 16.5609 8.48069 16.3735 8.29321C16.186 8.10574 15.9318 8.00029 15.6667 8ZM1 11.3333C0.911613 11.3333 0.826862 11.2981 0.764363 11.2356C0.701864 11.1731 0.666726 11.0884 0.666667 11V9C0.666726 8.91161 0.701864 8.82686 0.764363 8.76436C0.826862 8.70186 0.911613 8.66673 1 8.66667H1.33333V11.3333H1ZM4.28613 1.26042C4.36476 1.08373 4.49291 0.933608 4.65508 0.828232C4.81724 0.722855 5.00647 0.666736 5.19987 0.666667H11.4668C11.6602 0.666736 11.8494 0.722855 12.0116 0.828232C12.1738 0.933608 12.3019 1.08373 12.3805 1.26042L13.1536 3H3.51302L4.28613 1.26042ZM12.3805 18.7396C12.3019 18.9163 12.1738 19.0664 12.0116 19.1718C11.8494 19.2771 11.6602 19.3333 11.4668 19.3333H5.19987C5.00647 19.3333 4.81724 19.2771 4.65508 19.1718C4.49291 19.0664 4.36476 18.9163 4.28613 18.7396L3.51302 17H13.1536L12.3805 18.7396ZM14.6667 15.3333C14.6664 15.5985 14.5609 15.8526 14.3735 16.0401C14.186 16.2276 13.9318 16.333 13.6667 16.3333H3C2.73487 16.333 2.48069 16.2276 2.29321 16.0401C2.10574 15.8526 2.00029 15.5985 2 15.3333V4.66667C2.00029 4.40154 2.10574 4.14735 2.29321 3.95988C2.48069 3.77241 2.73487 3.66696 3 3.66667H13.6667C13.9318 3.66696 14.186 3.77241 14.3735 3.95988C14.5609 4.14735 14.6664 4.40154 14.6667 4.66667V15.3333ZM16 11C15.9999 11.0884 15.9648 11.1731 15.9023 11.2356C15.8398 11.2981 15.7551 11.3333 15.6667 11.3333H15.3333V8.66667H15.6667C15.7551 8.66673 15.8398 8.70186 15.9023 8.76436C15.9648 8.82686 15.9999 8.91161 16 9V11ZM13.6667 13.3333C13.6667 13.3771 13.6581 13.4205 13.6413 13.4609C13.6246 13.5014 13.6 13.5381 13.5691 13.5691C13.5381 13.6001 13.5014 13.6246 13.4609 13.6413C13.4205 13.6581 13.3771 13.6667 13.3333 13.6667H11.3333C11.2785 13.6667 11.2244 13.6531 11.1761 13.6272C11.1277 13.6013 11.0864 13.5639 11.056 13.5182L10.708 12.9961L9.6315 15.1491C9.60478 15.2025 9.56418 15.2478 9.51396 15.2802C9.46373 15.3125 9.40573 15.3308 9.34602 15.333C9.3418 15.3333 9.33757 15.3333 9.33333 15.3333C9.27578 15.3334 9.21919 15.3185 9.1691 15.2901C9.11902 15.2618 9.07713 15.2209 9.04753 15.1715L7.36003 12.3587L6.29818 14.4824C6.27206 14.5346 6.23268 14.5791 6.18399 14.6113C6.1353 14.6435 6.079 14.6624 6.02073 14.666C5.96245 14.6696 5.90425 14.6579 5.85194 14.632C5.79963 14.606 5.75505 14.5668 5.72266 14.5182L5.15495 13.6667H3.33333C3.24493 13.6667 3.16014 13.6315 3.09763 13.569C3.03512 13.5065 3 13.4217 3 13.3333C3 13.2449 3.03512 13.1601 3.09763 13.0976C3.16014 13.0351 3.24493 13 3.33333 13H5.33333C5.3882 13 5.44223 13.0136 5.4906 13.0395C5.53898 13.0654 5.58022 13.1028 5.61067 13.1484L5.95867 13.6706L7.03516 11.5176C7.06188 11.4641 7.10248 11.4189 7.15271 11.3865C7.20293 11.3541 7.26094 11.3359 7.32064 11.3337C7.38052 11.33 7.44023 11.3431 7.493 11.3717C7.54577 11.4002 7.58947 11.443 7.61915 11.4951L9.30665 14.3079L10.3685 12.1842C10.3946 12.132 10.434 12.0876 10.4827 12.0554C10.5314 12.0231 10.5877 12.0043 10.6459 12.0006C10.7042 11.997 10.7624 12.0088 10.8147 12.0347C10.867 12.0606 10.9116 12.0999 10.944 12.1484L11.5117 13H13.3333C13.3771 13 13.4205 13.0086 13.4609 13.0253C13.5014 13.0421 13.5381 13.0666 13.5691 13.0976C13.6 13.1285 13.6246 13.1653 13.6413 13.2057C13.6581 13.2462 13.6667 13.2896 13.6667 13.3333ZM8.09767 10.569C8.12861 10.6 8.16535 10.6245 8.20579 10.6413C8.24623 10.658 8.28957 10.6667 8.33334 10.6667C8.37712 10.6667 8.42046 10.658 8.4609 10.6413C8.50134 10.6245 8.53808 10.6 8.56902 10.569L11.0863 8.0524C11.4537 7.68485 11.6622 7.18775 11.6669 6.66804C11.6716 6.14833 11.4721 5.64754 11.1114 5.2734C10.7507 4.89926 10.2575 4.68167 9.73793 4.66743C9.2184 4.65319 8.71403 4.84345 8.33333 5.19727C7.9526 4.84361 7.44829 4.6535 6.92885 4.6678C6.40941 4.68211 5.91632 4.8997 5.55564 5.27378C5.19496 5.64785 4.99548 6.14853 5.00011 6.66815C5.00474 7.18777 5.21311 7.68482 5.5804 8.05241L8.09767 10.569ZM6.05177 5.71907C6.29877 5.47208 6.63377 5.33332 6.98308 5.33332C7.33239 5.33332 7.66739 5.47208 7.9144 5.71907L8.09767 5.90233C8.12861 5.93329 8.16535 5.95785 8.20579 5.97461C8.24623 5.99137 8.28957 5.99999 8.33334 5.99999C8.37712 5.99999 8.42046 5.99137 8.4609 5.97461C8.50134 5.95785 8.53808 5.93329 8.56902 5.90233L8.75229 5.71907C9.00319 5.47954 9.33673 5.3459 9.6836 5.3459C10.0305 5.3459 10.364 5.47954 10.6149 5.71907C10.8615 5.96615 11 6.30097 11 6.65006C11 6.99914 10.8615 7.33396 10.6149 7.58104L8.33333 9.86198L6.05176 7.58105C5.80516 7.33397 5.66667 6.99915 5.66667 6.65007C5.66667 6.30098 5.80517 5.96615 6.05177 5.71907Z" fill="#FD5B44"/>
</svg>
