<svg width="32" height="32" viewBox="0 0 32 32" fill="none" xmlns="http://www.w3.org/2000/svg">
<path fill-rule="evenodd" clip-rule="evenodd" d="M19.2288 29.8751C19.2288 28.7016 18.3321 27.7502 17.2261 27.7502H14.7739C14.2428 27.7502 13.7334 27.9741 13.3578 28.3726C12.9823 28.7711 12.7712 29.3116 12.7712 29.8751C12.7712 31.0486 13.6679 32 14.7739 32H17.2261C18.3321 32 19.2288 31.0486 19.2288 29.8751ZM4.21006 24.3959C4.54456 24.4231 4.94925 24.4386 5.35575 24.4134C5.57231 25.5787 6.11031 26.6595 6.91337 27.5116C7.9795 28.6428 9.42544 29.2783 10.9331 29.2783H11.6973C11.6636 29.4739 11.6462 29.6736 11.6462 29.8751C11.6462 30.0789 11.6636 30.2785 11.6967 30.472H10.9331C9.12706 30.472 7.39494 29.7107 6.11788 28.3557C5.09906 27.2746 4.43638 25.8863 4.21006 24.3959ZM3.63781 23.1258C2.74963 22.9669 1.92313 22.5189 1.27794 21.8342C0.459688 20.966 0 19.7885 0 18.5606V15.7394C0 14.5115 0.459688 13.334 1.27794 12.4658C2.09619 11.5976 3.206 11.1098 4.36319 11.1098H4.65363C5.11788 4.89229 10.0205 0 16 0C21.9795 0 26.8821 4.89229 27.3464 11.1098H27.6368C28.794 11.1098 29.9038 11.5976 30.7221 12.4658C31.5403 13.334 32 14.5115 32 15.7394V18.5606C32 19.7885 31.5403 20.966 30.7221 21.8342C29.9038 22.7025 28.794 23.1903 27.6368 23.1903H26.3493C25.8153 23.1903 25.3824 22.7309 25.3824 22.1644V12.0772C25.3824 6.57916 21.1817 2.1221 16 2.1221C10.8183 2.1221 6.61763 6.57916 6.61763 12.0772V22.1644C6.61763 22.5644 6.40181 22.911 6.08694 23.0802C5.22019 23.3993 3.876 23.1684 3.63781 23.1258Z" fill="#E42E3B"/>
</svg>
