<svg width="21" height="20" viewBox="0 0 21 20" fill="none" xmlns="http://www.w3.org/2000/svg">
<path d="M10.7826 20C10.4917 20 10.2112 19.8841 9.99261 19.6734C9.16703 18.8794 8.37107 18.1331 7.66882 17.4749L7.66523 17.4714C5.60635 15.5415 3.82842 13.8747 2.59138 12.2329C1.20855 10.3974 0.564453 8.65708 0.564453 6.75591C0.564453 4.90876 1.14026 3.20464 2.18568 1.95726C3.24358 0.695126 4.69517 0 6.27352 0C7.45319 0 8.53354 0.410249 9.48448 1.21926C9.96439 1.62762 10.3994 2.1274 10.7826 2.71036C11.166 2.1274 11.6009 1.62762 12.081 1.21926C13.0319 0.410249 14.1123 0 15.2919 0C16.8701 0 18.3219 0.695126 19.3798 1.95726C20.4252 3.20464 21.0008 4.90876 21.0008 6.75591C21.0008 8.65708 20.3569 10.3974 18.9741 12.2327C17.737 13.8747 15.9593 15.5413 13.9007 17.4711C13.1972 18.1304 12.4 18.8778 11.5725 19.6738C11.3541 19.8841 11.0734 20 10.7826 20ZM6.27352 1.31685C5.03351 1.31685 3.89438 1.86121 3.06568 2.84979C2.22466 3.85329 1.76143 5.24046 1.76143 6.75591C1.76143 8.35489 2.30168 9.78493 3.513 11.3927C4.68379 12.9467 6.42523 14.5791 8.44155 16.4693L8.44529 16.4727C9.15019 17.1336 9.94927 17.8827 10.7809 18.6826C11.6176 17.8812 12.4179 17.1308 13.1242 16.469C15.1404 14.5788 16.8817 12.9467 18.0524 11.3927C19.2636 9.78493 19.8039 8.35489 19.8039 6.75591C19.8039 5.24046 19.3406 3.85329 18.4996 2.84979C17.6711 1.86121 16.5318 1.31685 15.2919 1.31685C14.3836 1.31685 13.5496 1.63448 12.8132 2.26083C12.1569 2.81926 11.6997 3.52519 11.4317 4.01914C11.2939 4.27315 11.0513 4.42476 10.7826 4.42476C10.514 4.42476 10.2714 4.27315 10.1336 4.01914C9.86569 3.52519 9.40854 2.81926 8.75213 2.26083C8.01574 1.63448 7.18174 1.31685 6.27352 1.31685Z" fill="#101111"/>
</svg>
